<?xml version="1.0" encoding="utf-8"?>
<!-- Generator: Adobe Illustrator 27.5.0, SVG Export Plug-In . SVG Version: 6.00 Build 0)  -->
<svg version="1.1" xmlns="http://www.w3.org/2000/svg" xmlns:xlink="http://www.w3.org/1999/xlink" x="0px" y="0px"
	 viewBox="0 0 750 500" style="enable-background:new 0 0 750 500;" xml:space="preserve">
<g id="BACKGROUND">
	<rect style="fill:#24003A;" width="750" height="500"/>
</g>
<g id="OBJECTS">
	<g>
		<defs>
			<rect id="SVGID_1_" width="750" height="500"/>
		</defs>
		<clipPath id="SVGID_00000174588855833524059100000007284675501222899864_">
			<use xlink:href="#SVGID_1_"  style="overflow:visible;"/>
		</clipPath>
		
			<linearGradient id="SVGID_00000168800909245862071520000002905948263852317109_" gradientUnits="userSpaceOnUse" x1="676.8748" y1="-211.4114" x2="-97.6502" y2="304.9392">
			<stop  offset="0" style="stop-color:#A60082"/>
			<stop  offset="1" style="stop-color:#46005B"/>
		</linearGradient>
		
			<path style="opacity:0.29;clip-path:url(#SVGID_00000174588855833524059100000007284675501222899864_);fill:url(#SVGID_00000168800909245862071520000002905948263852317109_);" d="
			M148.013,271.877c78.476-24.313,160.569-32.145,225.215-87.971C434.844,130.697,459.602,54.71,469.827,0H328.673
			c-13.846,28.991-30.791,56.253-53.286,80.568c-41.887,45.276-86.193,35.285-139.21,15.378C87.915,77.826,47.892,49.996,0,44.808
			v51.204c44.346-4.722,80.283,2.326,82.402,16.903C84.651,128.389,47.953,146.581,0,153.969v26.98
			c5.873-5.271,17.338-10.767,31.112-14.389c21.234-5.583,39.897-4.597,41.685,2.202c1.788,6.8-13.976,16.838-35.21,22.421
			C21.516,195.409,6.924,195.869,0,192.896v103.815c31.194-32.421,79.486-51.511,111.771-61.925
			c38.817-12.521,50.712-5.009,53.217,1.252c2.504,6.261-0.587,12.419-29.556,20.877C99.744,267.335,37.611,295.022,0,344.228v59.54
			C19.39,345.853,63.474,298.068,148.013,271.877z M404.673,44.598c6.522-16.316,18.528-26.858,26.815-23.545
			c8.288,3.313,9.719,19.225,3.197,35.542c-6.522,16.316-18.528,26.858-26.815,23.545C399.583,76.827,398.151,60.915,404.673,44.598
			z M390.924,106.663c4.204-8.96,11.301-14.493,15.852-12.358c4.551,2.135,4.833,11.13,0.629,20.09
			c-4.204,8.96-11.301,14.493-15.852,12.358C387.002,124.619,386.72,115.624,390.924,106.663z M289.049,92.07
			c10.366-10.249,22.989-14.29,28.195-9.025c5.206,5.265,1.023,17.842-9.342,28.091c-10.366,10.249-22.989,14.29-28.195,9.025
			C274.5,114.897,278.683,102.32,289.049,92.07z"/>
		
			<linearGradient id="SVGID_00000043424693956547729110000018211859980244575875_" gradientUnits="userSpaceOnUse" x1="184.8719" y1="855.4985" x2="728.1765" y2="143.3877">
			<stop  offset="0" style="stop-color:#A60082"/>
			<stop  offset="1" style="stop-color:#46005B"/>
		</linearGradient>
		
			<path style="opacity:0.29;clip-path:url(#SVGID_00000174588855833524059100000007284675501222899864_);fill:url(#SVGID_00000043424693956547729110000018211859980244575875_);" d="
			M609.985,296.154c-80.914,48.673-253.35,46.713-343.556,126.783c-21.657,19.224-37.077,45.565-41.014,77.063h396.349
			c-1.906-3.324-3.749-6.739-5.513-10.268c-10.299-20.598-10.998-58.163,19.082-67.987c35.451-11.578,73.676,32.472,108.568,24.42
			c2.213-0.511,4.237-1.086,6.099-1.725V75.016C708.604,185.475,665.669,262.657,609.985,296.154z M341.879,444.559
			c-22.488,11.22-44.673,12.388-49.551,2.611c-4.878-9.777,9.398-26.799,31.886-38.018c22.488-11.219,44.673-12.388,49.551-2.611
			C378.643,416.319,364.368,433.34,341.879,444.559z M399.649,396.941c-6.528,2.171-12.726,1.205-13.845-2.158
			c-1.118-3.363,3.267-7.849,9.794-10.02c6.528-2.171,12.726-1.205,13.845,2.158C410.562,390.283,406.177,394.769,399.649,396.941z
			 M608.608,413.484c-13.418,12.077-21.498,28.971-21.858,52.524c0.49,11.259-5.034,17.26-12.408,16.497
			c-7.559-0.782-14.234-7.524-13.482-20.812c1.618-28.587,23.762-55.551,34.531-62.894c5.544-3.78,12.313-4.165,16.105,0.467
			C614.429,402.85,614.192,408.458,608.608,413.484z M632.803,402.669c-4.341,0-7.859-3.519-7.859-7.859s3.519-7.859,7.859-7.859
			c4.34,0,7.859,3.519,7.859,7.859S637.144,402.669,632.803,402.669z M719.219,228.678c-4.562,12.028-21.261,44.275-44.345,65.865
			c-10.334,9.665-20.275,7.282-23.219,2.444c-3.298-5.419,0.566-11.494,10.16-23.109c20.204-24.458,28.826-41.582,36.612-55.597
			c6.592-11.864,12.694-13.208,18.08-10.848C723.485,210.492,723.078,218.503,719.219,228.678z"/>
		
			<linearGradient id="SVGID_00000153699518973339039930000016264803766647043238_" gradientUnits="userSpaceOnUse" x1="827.6152" y1="-48.6934" x2="614.8626" y2="232.0909">
			<stop  offset="0" style="stop-color:#FF1E61"/>
			<stop  offset="1" style="stop-color:#FF1E61;stop-opacity:0"/>
		</linearGradient>
		
			<circle style="clip-path:url(#SVGID_00000174588855833524059100000007284675501222899864_);fill:url(#SVGID_00000153699518973339039930000016264803766647043238_);" cx="630.902" cy="210.922" r="13.404"/>
		
			<linearGradient id="SVGID_00000012447865881685782290000010094835411008122278_" gradientUnits="userSpaceOnUse" x1="283.1786" y1="577.8476" x2="668.526" y2="-29.4751">
			<stop  offset="0" style="stop-color:#FF1E61"/>
			<stop  offset="1" style="stop-color:#FF1E61;stop-opacity:0"/>
		</linearGradient>
		
			<path style="clip-path:url(#SVGID_00000174588855833524059100000007284675501222899864_);fill:none;stroke:url(#SVGID_00000012447865881685782290000010094835411008122278_);stroke-miterlimit:10;" d="
			M194.465,521.135c-13.234-55.945,32.174-143.292,169.037-172.044c136.863-28.753,195.214-30.758,245.925-67.074
			c88.999-63.735,137.081-220.916,146.282-255.994"/>
		
			<linearGradient id="SVGID_00000114058165136285608930000001298052064800749756_" gradientUnits="userSpaceOnUse" x1="277.6805" y1="572.9744" x2="664.1805" y2="-36.1648">
			<stop  offset="0" style="stop-color:#FF1E61"/>
			<stop  offset="1" style="stop-color:#FF1E61;stop-opacity:0"/>
		</linearGradient>
		
			<path style="clip-path:url(#SVGID_00000174588855833524059100000007284675501222899864_);fill:none;stroke:url(#SVGID_00000114058165136285608930000001298052064800749756_);stroke-miterlimit:10;" d="
			M189.022,516.297c-13.234-55.945,32.174-143.292,169.037-172.044c136.863-28.753,195.214-30.758,245.925-67.074
			c88.999-63.735,137.742-223.044,146.943-258.123"/>
		
			<linearGradient id="SVGID_00000057141373050226826470000009922904547390572959_" gradientUnits="userSpaceOnUse" x1="650.4577" y1="517.6731" x2="712.8936" y2="419.2718">
			<stop  offset="0" style="stop-color:#FF1E61"/>
			<stop  offset="1" style="stop-color:#FF1E61;stop-opacity:0"/>
		</linearGradient>
		
			<path style="clip-path:url(#SVGID_00000174588855833524059100000007284675501222899864_);fill:none;stroke:url(#SVGID_00000057141373050226826470000009922904547390572959_);stroke-miterlimit:10;" d="
			M643.255,512.564c-14.334-21.939-29.89-59.532-11.742-74.872c18.148-15.34,40.419,3.272,72.021,14.593
			c29.916,10.716,52.688,7.144,59.832-0.893"/>
		
			<linearGradient id="SVGID_00000134231318323781324170000016139184978789408700_" gradientUnits="userSpaceOnUse" x1="975.152" y1="540.6171" x2="1028.229" y2="456.9657" gradientTransform="matrix(0.9878 -0.1557 0.1557 0.9878 -379.7156 144.0458)">
			<stop  offset="0" style="stop-color:#FF1E61"/>
			<stop  offset="1" style="stop-color:#FF1E61;stop-opacity:0"/>
		</linearGradient>
		
			<path style="clip-path:url(#SVGID_00000174588855833524059100000007284675501222899864_);fill:none;stroke:url(#SVGID_00000134231318323781324170000016139184978789408700_);stroke-miterlimit:10;" d="
			M659.654,522.246c-17.576-19.439-39.738-63.036-23.624-78.093c16.113-15.057,43.465,10.313,75.813,19.283
			c31.434,8.717,44.906,0.528,53.095-2.642"/>
		
			<linearGradient id="SVGID_00000146483424314024178920000014974612909064786861_" gradientUnits="userSpaceOnUse" x1="74.1621" y1="514.5659" x2="437.8563" y2="-58.6305">
			<stop  offset="0" style="stop-color:#FF1E61;stop-opacity:0"/>
			<stop  offset="1" style="stop-color:#FF1E61"/>
		</linearGradient>
		
			<path style="clip-path:url(#SVGID_00000174588855833524059100000007284675501222899864_);fill:none;stroke:url(#SVGID_00000146483424314024178920000014974612909064786861_);stroke-miterlimit:10;" d="
			M-12.179,459.622c21.201-70.871,58.757-136.897,145.983-166.578c87.226-29.681,146.076-29.872,227.152-77.535
			C460.903,156.753,499.67,59.229,515.42-9.219"/>
		
			<linearGradient id="SVGID_00000153685100495423492620000008716711764926087335_" gradientUnits="userSpaceOnUse" x1="23.1371" y1="519.329" x2="392.9922" y2="-63.5773" gradientTransform="matrix(0.9995 0.0317 -0.0317 0.9995 71.0965 -7.5226)">
			<stop  offset="0" style="stop-color:#FF1E61;stop-opacity:0"/>
			<stop  offset="1" style="stop-color:#FF1E61"/>
		</linearGradient>
		
			<path style="clip-path:url(#SVGID_00000174588855833524059100000007284675501222899864_);fill:none;stroke:url(#SVGID_00000153685100495423492620000008716711764926087335_);stroke-miterlimit:10;" d="
			M-6.681,454.705c23.434-70.165,63.061-134.968,151.183-161.873s146.949-25.233,229.492-70.305
			C475.752,166.964,520.141,67.752,538.61-8.966"/>
		
			<linearGradient id="SVGID_00000041297757424742784410000001856716938152233133_" gradientUnits="userSpaceOnUse" x1="97.0691" y1="91.6391" x2="203.5106" y2="-76.1169">
			<stop  offset="0" style="stop-color:#FF1E61"/>
			<stop  offset="1" style="stop-color:#FF1E61;stop-opacity:0"/>
		</linearGradient>
		
			<path style="clip-path:url(#SVGID_00000174588855833524059100000007284675501222899864_);fill:none;stroke:url(#SVGID_00000041297757424742784410000001856716938152233133_);stroke-miterlimit:10;" d="
			M-15.182,19.982c27.82-5.176,71.813,20.703,120.336,45.288c48.523,24.585,83.553,45.796,124.865,31.701
			c54.992-18.762,75.695-108.044,75.695-108.044"/>
		
			<linearGradient id="SVGID_00000127755495985541955620000007147875679672495775_" gradientUnits="userSpaceOnUse" x1="96.6982" y1="83.4797" x2="203.1397" y2="-84.2762">
			<stop  offset="0" style="stop-color:#FF1E61"/>
			<stop  offset="1" style="stop-color:#FF1E61;stop-opacity:0"/>
		</linearGradient>
		
			<path style="clip-path:url(#SVGID_00000174588855833524059100000007284675501222899864_);fill:none;stroke:url(#SVGID_00000127755495985541955620000007147875679672495775_);stroke-miterlimit:10;" d="
			M-15.552,11.823c27.82-5.176,71.813,20.703,120.336,45.288s83.553,45.796,124.865,31.702
			c54.992-18.762,75.695-108.044,75.695-108.044"/>
		
			<linearGradient id="SVGID_00000013912932626485914570000017723926090702162585_" gradientUnits="userSpaceOnUse" x1="311.0168" y1="-84.3583" x2="231.2102" y2="72.3791">
			<stop  offset="0" style="stop-color:#FF1E61"/>
			<stop  offset="1" style="stop-color:#FF1E61;stop-opacity:0"/>
		</linearGradient>
		
			<path style="clip-path:url(#SVGID_00000174588855833524059100000007284675501222899864_);fill:url(#SVGID_00000013912932626485914570000017723926090702162585_);" d="
			M222.377,59.658c6.732,14.115,26.457,1.723,33.628-4.827C273.176,39.144,284.235,18.219,290.246,0H244.02
			c-1.807,6.886-4.286,14.187-9.7,24.697C226.937,39.029,217.504,49.44,222.377,59.658z"/>
		
			<linearGradient id="SVGID_00000008838115985937142890000005861017494290945428_" gradientUnits="userSpaceOnUse" x1="365.6412" y1="718.7357" x2="853.3389" y2="236.3392">
			<stop  offset="0" style="stop-color:#FF1E61"/>
			<stop  offset="1" style="stop-color:#FF1E61;stop-opacity:0"/>
		</linearGradient>
		
			<circle style="clip-path:url(#SVGID_00000174588855833524059100000007284675501222899864_);fill:url(#SVGID_00000008838115985937142890000005861017494290945428_);" cx="694.493" cy="393.458" r="10.366"/>
		
			<linearGradient id="SVGID_00000141444186511689553920000000679446056008248250_" gradientUnits="userSpaceOnUse" x1="290.2996" y1="642.5665" x2="777.9965" y2="160.1709">
			<stop  offset="0" style="stop-color:#FF1E61"/>
			<stop  offset="1" style="stop-color:#FF1E61;stop-opacity:0"/>
		</linearGradient>
		
			<path style="clip-path:url(#SVGID_00000174588855833524059100000007284675501222899864_);fill:url(#SVGID_00000141444186511689553920000000679446056008248250_);" d="
			M728.573,239.618c-24.842,51.236-47.751,66.829-109.996,102.255c-15.479,8.809-19.895,0.332-9.161-7.687
			c6.82-5.095,8.028-9.057,4.747-14.007c-3.792-5.72-16.69-0.647-20.681,0.752c-55.154,19.341-114.746,35.311-157.36,45.515
			c-3.937,0.943-10.7,3.577-10.444,8.063c0.319,5.576,6.462,5.345,7.691,9.614c1.267,4.4-0.081,8.4-8.995,19.296
			c-20.739,25.348-37.384,39.953-68.809,61.219c-27.282,18.461-44.769,26.277-56.16,19.673c-11.391-6.603,0.895-21.47-10.07-24.598
			c-9.697-2.766-27.465,12.005-36.63,40.287h266.963c6.437-31.51,23.479-55.907,38.884-76.62
			c17.356-23.336,16.217-28.196,12.829-33.19c-3.388-4.995-13.995-1.267-22.505,3.595c-9.322,5.327-22.105,13.583-29.429,17.311
			c-6.883,3.504-12.952,2.962-14.781-0.133c-1.731-2.93-1.008-6.186,3.729-11.053c10.46-10.749,32.76-25.387,46.542-32.4
			c13.951-7.098,26.801-9.068,36.316-3.322c7.589,4.583,7.374,10.757,13.78,14.786c9.008,5.667,21.097-0.248,29.481-4.605
			c21.337-11.089,39.389-26.992,58.883-41.319c8.999-6.613,18.279-11.511,24.609-6.961c7.608,5.469,3.329,14.741-1.444,23.68
			c-6.666,12.484-13.254,28.795-1.034,35.504c9.253,5.08,21.589,2.486,34.476-3.786V121.88
			c-5.765,14.762-21.787,49.147-26.288,57.608c-4.501,8.461-3.303,14.345,2.88,15.842
			C743.695,199.472,740.094,215.854,728.573,239.618z"/>
		
			<linearGradient id="SVGID_00000155855256301922133720000012719629208838859706_" gradientUnits="userSpaceOnUse" x1="305.055" y1="657.483" x2="792.752" y2="175.0873">
			<stop  offset="0" style="stop-color:#FF1E61"/>
			<stop  offset="1" style="stop-color:#FF1E61;stop-opacity:0"/>
		</linearGradient>
		
			<path style="clip-path:url(#SVGID_00000174588855833524059100000007284675501222899864_);fill:url(#SVGID_00000155855256301922133720000012719629208838859706_);" d="
			M582.353,386.832c0,2.028-1.644,3.672-3.672,3.672c-2.028,0-3.672-1.644-3.672-3.672s1.644-3.672,3.672-3.672
			C580.709,383.159,582.353,384.803,582.353,386.832z"/>
		
			<linearGradient id="SVGID_00000073688613741293928600000001205680413760744881_" gradientUnits="userSpaceOnUse" x1="293.2176" y1="645.5151" x2="780.9144" y2="163.1196">
			<stop  offset="0" style="stop-color:#FF1E61"/>
			<stop  offset="1" style="stop-color:#FF1E61;stop-opacity:0"/>
		</linearGradient>
		
			<circle style="clip-path:url(#SVGID_00000174588855833524059100000007284675501222899864_);fill:url(#SVGID_00000073688613741293928600000001205680413760744881_);" cx="627.996" cy="314.375" r="6.503"/>
		
			<linearGradient id="SVGID_00000181073314177052253770000000384403563467623557_" gradientUnits="userSpaceOnUse" x1="218.3514" y1="569.828" x2="706.0493" y2="87.4314">
			<stop  offset="0" style="stop-color:#FF1E61"/>
			<stop  offset="1" style="stop-color:#FF1E61;stop-opacity:0"/>
		</linearGradient>
		
			<path style="clip-path:url(#SVGID_00000174588855833524059100000007284675501222899864_);fill:url(#SVGID_00000181073314177052253770000000384403563467623557_);" d="
			M321.048,473.557c0,2.964-2.403,5.367-5.367,5.367s-5.367-2.403-5.367-5.367c0-2.964,2.403-5.367,5.367-5.367
			S321.048,470.592,321.048,473.557z"/>
		
			<linearGradient id="SVGID_00000117661466305136758290000016796767992260878783_" gradientUnits="userSpaceOnUse" x1="452.7953" y1="670.8229" x2="839.0087" y2="390.2266">
			<stop  offset="0" style="stop-color:#FF1E61"/>
			<stop  offset="1" style="stop-color:#FF1E61;stop-opacity:0"/>
		</linearGradient>
		
			<path style="clip-path:url(#SVGID_00000174588855833524059100000007284675501222899864_);fill:url(#SVGID_00000117661466305136758290000016796767992260878783_);" d="
			M750,485.489c-6.54,0.905-16.392,1.185-29.853-1.229c-23.441-4.204-45.006-18.176-55.825-12.117
			c-8.498,4.759-7.914,17.26,0.276,27.857H750V485.489z"/>
		
			<linearGradient id="SVGID_00000084506483698396509160000007160241539110118313_" gradientUnits="userSpaceOnUse" x1="124.5523" y1="268.0134" x2="413.1196" y2="-17.4172">
			<stop  offset="0" style="stop-color:#FF1E61"/>
			<stop  offset="1" style="stop-color:#FF1E61;stop-opacity:0"/>
		</linearGradient>
		
			<path style="clip-path:url(#SVGID_00000174588855833524059100000007284675501222899864_);fill:url(#SVGID_00000084506483698396509160000007160241539110118313_);" d="
			M326.487,72.08c0,2.125-1.723,3.848-3.848,3.848c-2.125,0-3.848-1.723-3.848-3.848s1.723-3.848,3.848-3.848
			C324.764,68.232,326.487,69.955,326.487,72.08z"/>
		
			<linearGradient id="SVGID_00000039856812120571761230000006156422060991465382_" gradientUnits="userSpaceOnUse" x1="-380.0037" y1="790.8385" x2="444.4781" y2="-24.6812">
			<stop  offset="0" style="stop-color:#FF1E61"/>
			<stop  offset="1" style="stop-color:#FF1E61;stop-opacity:0"/>
		</linearGradient>
		
			<circle style="clip-path:url(#SVGID_00000174588855833524059100000007284675501222899864_);fill:url(#SVGID_00000039856812120571761230000006156422060991465382_);" cx="185.961" cy="231.026" r="10.993"/>
		
			<linearGradient id="SVGID_00000170278901403443186680000001720983969955717052_" gradientUnits="userSpaceOnUse" x1="674.3526" y1="-215.1953" x2="-100.1728" y2="301.1556">
			<stop  offset="0" style="stop-color:#FF1E61"/>
			<stop  offset="1" style="stop-color:#FF1E61;stop-opacity:0"/>
		</linearGradient>
		
			<path style="clip-path:url(#SVGID_00000174588855833524059100000007284675501222899864_);fill:url(#SVGID_00000170278901403443186680000001720983969955717052_);" d="
			M218.729,188.824c16.591-1.834,28.295-2.031,30.407,7.33c1.98,8.776-2.469,12.263-8.494,13.8
			c-4.926,1.257-10.776,2.281-18.016,4.372c-6.79,1.962-12.29,5.957-10.453,14.797c1.605,7.726,12.351,7.868,21.232,6.599
			c21.563-3.08,61.084-18.288,79.521-28.516c38.024-21.095,60.006-41.876,66.543-49.011c8.918-9.734,13.052-18.776,6.506-23.758
			c-6.547-4.981-15.57,4.128-19.27,6.952c-18.08,13.801-14.283-8.288-5.722-27.271C374.035,85.183,397.805,30.207,421.839,0h-76.336
			c-2.414,4.885-4.777,9.707-8.805,17.041c-5.751,10.468-9.086,15.989-13.484,23.925c-2.441,4.405-3.669,11.758,2.26,14.234
			c5.295,2.21,10.945-4.524,13.612-8.121c2.754-3.713,6.814-5.507,10.403-3.003c4.612,3.217,3.539,10.618,1.609,15.336
			c-4.097,10.016-6.435,15.229-11.249,24.85c-11.387,22.758-27.963,49.675-51.337,61.15c-6.823,3.35-16.062,8.444-22.012,1.175
			c-4.147-5.066-2.949-11.343-3.842-17.276c-0.876-5.82-4.286-6.71-9.747-6.47c-8.926,0.392-14.561,2.475-29.886,2.475
			c-12.076,0-42.478-0.469-75.284-12.264C114.156,100.978,76.043,77.77,42.657,62.382C30.535,56.794,14.922,51.866,0,51.463v26.699
			c14.566-1.066,30.97,0.499,44.533,3.57c20,4.528,51.798,17.87,52.644,37.908c0.549,12.997-5.722,18.297-10.315,20.064
			c-3.621,1.393-5.608,2.316-9.596,3.455c-2.735,0.781-5.534,2.734-4.688,6.055c0.847,3.32,3.06,4.362,6.381,4.493
			c4.157,0.163,9.252-1.582,12.957-2.474c5.404-1.302,14.129-2.083,18.65,11.088c3.995,11.636-2.826,18.019-10.599,21.905
			c-8.509,4.254-20.973,8.899-45.681,17.809C36.023,208.62,17.542,215.783,0,224.499v44.275
			c33.661-20.606,89.45-46.85,126.757-58.261C174.21,195.998,201.779,190.697,218.729,188.824z"/>
		<g style="clip-path:url(#SVGID_00000174588855833524059100000007284675501222899864_);">
			
				<linearGradient id="SVGID_00000149350133866634379570000012941309614251547579_" gradientUnits="userSpaceOnUse" x1="805.7928" y1="-137.2406" x2="571.2593" y2="203.2116">
				<stop  offset="0" style="stop-color:#FF1E61"/>
				<stop  offset="1" style="stop-color:#FF1E61;stop-opacity:0"/>
			</linearGradient>
			<path style="fill:url(#SVGID_00000149350133866634379570000012941309614251547579_);" d="M746.703-23.933L637.424-10.849
				c-5.732,13.278-10.036,30.306-8.966,44.76c0.473,6.384,4.661,14.325,12.189,11.968c6.047-1.893,9.856-8.777,13.399-13.513
				c1.736-2.321,7.853-11.244,15.072-7.254c7.22,3.99,5.733,16.748-4.349,42.396c-7.544,21.067-16.806,44.039-28.077,68.455
				c-12.717,27.548-8.071,41.731,1.28,47.068c12.74,7.272,30.41,1.731,43.603-22.822c35.834-66.691,62.287-153.178,70.766-177.202
				L746.703-23.933z"/>
		</g>
		
			<linearGradient id="SVGID_00000079449417769300445440000012710940676640698253_" gradientUnits="userSpaceOnUse" x1="779.7313" y1="-155.194" x2="545.198" y2="185.2578">
			<stop  offset="0" style="stop-color:#FF1E61"/>
			<stop  offset="1" style="stop-color:#FF1E61;stop-opacity:0"/>
		</linearGradient>
		
			<circle style="clip-path:url(#SVGID_00000174588855833524059100000007284675501222899864_);fill:url(#SVGID_00000079449417769300445440000012710940676640698253_);" cx="625.98" cy="67.994" r="13.328"/>
		
			<linearGradient id="SVGID_00000074430465076706332550000012211211012250636953_" gradientUnits="userSpaceOnUse" x1="418.1238" y1="502.3145" x2="460.7112" y2="433.0391">
			<stop  offset="0" style="stop-color:#FFD060"/>
			<stop  offset="1" style="stop-color:#FFFF60;stop-opacity:0.9567"/>
		</linearGradient>
		
			<path style="clip-path:url(#SVGID_00000174588855833524059100000007284675501222899864_);fill:url(#SVGID_00000074430465076706332550000012211211012250636953_);" d="
			M511.985,467.27c-6.069-3.685-14.716-0.39-29.368,6.936c-8.453,4.226-17.014,8.019-23.408,3.793
			c-6.876-4.545-1.306-20.631-2.499-28.464c-2.098-13.773-20.8-8.707-31.637-2.313c-15.653,9.235-28.068,17.989-46.71,31.151
			c-10.849,7.66-24.208,16.45-38.518,21.627h158.31C512.461,480.835,517.128,470.392,511.985,467.27z"/>
		
			<linearGradient id="SVGID_00000035503723767349186140000001841811518942303377_" gradientUnits="userSpaceOnUse" x1="449.5536" y1="521.6359" x2="492.1409" y2="452.3605">
			<stop  offset="0" style="stop-color:#FFD060"/>
			<stop  offset="1" style="stop-color:#FFFF60;stop-opacity:0.9567"/>
		</linearGradient>
		
			<path style="clip-path:url(#SVGID_00000174588855833524059100000007284675501222899864_);fill:url(#SVGID_00000035503723767349186140000001841811518942303377_);" d="
			M500.159,452.909c1.132,2.339-3.275,6.813-9.843,9.991c-6.568,3.179-12.811,3.859-13.943,1.52
			c-1.132-2.339,3.275-6.813,9.843-9.991C492.784,451.25,499.026,450.57,500.159,452.909z"/>
		
			<linearGradient id="SVGID_00000101815303432767297480000003434848729758017941_" gradientUnits="userSpaceOnUse" x1="463.0935" y1="529.9602" x2="505.6811" y2="460.6844">
			<stop  offset="0" style="stop-color:#FFD060"/>
			<stop  offset="1" style="stop-color:#FFFF60;stop-opacity:0.9567"/>
		</linearGradient>
		
			<path style="clip-path:url(#SVGID_00000174588855833524059100000007284675501222899864_);fill:url(#SVGID_00000101815303432767297480000003434848729758017941_);" d="
			M510.347,457.217c0,1.399-1.135,2.534-2.534,2.534c-1.4,0-2.534-1.135-2.534-2.534c0-1.4,1.134-2.534,2.534-2.534
			C509.212,454.683,510.347,455.817,510.347,457.217z"/>
		
			<linearGradient id="SVGID_00000054258775613949482600000015158348548218414013_" gradientUnits="userSpaceOnUse" x1="411.01" y1="497.9413" x2="453.5974" y2="428.6659">
			<stop  offset="0" style="stop-color:#FFD060"/>
			<stop  offset="1" style="stop-color:#FFFF60;stop-opacity:0.9567"/>
		</linearGradient>
		
			<path style="clip-path:url(#SVGID_00000174588855833524059100000007284675501222899864_);fill:url(#SVGID_00000054258775613949482600000015158348548218414013_);" d="
			M458.744,429.686c0,3.189-2.585,5.774-5.774,5.774c-3.189,0-5.773-2.585-5.773-5.774c0-3.189,2.585-5.773,5.773-5.773
			C456.159,423.913,458.744,426.497,458.744,429.686z"/>
		
			<linearGradient id="SVGID_00000027594593260451703760000017913177070595252864_" gradientUnits="userSpaceOnUse" x1="400.4598" y1="491.4551" x2="443.047" y2="422.1799">
			<stop  offset="0" style="stop-color:#FFD060"/>
			<stop  offset="1" style="stop-color:#FFFF60;stop-opacity:0.9567"/>
		</linearGradient>
		
			<path style="clip-path:url(#SVGID_00000174588855833524059100000007284675501222899864_);fill:url(#SVGID_00000027594593260451703760000017913177070595252864_);" d="
			M439.202,431.685c0,1.104-0.895,1.999-1.998,1.999c-1.104,0-1.999-0.895-1.999-1.999c0-1.104,0.895-1.999,1.999-1.999
			C438.308,429.686,439.202,430.581,439.202,431.685z"/>
		
			<linearGradient id="SVGID_00000103956933703151392170000014615278238058445185_" gradientUnits="userSpaceOnUse" x1="742.4452" y1="174.9592" x2="750" y2="174.9592">
			<stop  offset="0" style="stop-color:#FFD060"/>
			<stop  offset="1" style="stop-color:#FFFF60;stop-opacity:0.9567"/>
		</linearGradient>
		
			<path style="clip-path:url(#SVGID_00000174588855833524059100000007284675501222899864_);fill:url(#SVGID_00000103956933703151392170000014615278238058445185_);" d="
			M742.9,180.934c1.081,4.967,4.296,8.844,7.1,12.941v-37.833C744.523,165.008,741.177,173.018,742.9,180.934z"/>
		
			<linearGradient id="SVGID_00000089555758644210014710000000508143813020058294_" gradientUnits="userSpaceOnUse" x1="736.332" y1="347.3402" x2="750" y2="347.3402">
			<stop  offset="0" style="stop-color:#FFD060"/>
			<stop  offset="1" style="stop-color:#FFFF60;stop-opacity:0.9567"/>
		</linearGradient>
		
			<path style="clip-path:url(#SVGID_00000174588855833524059100000007284675501222899864_);fill:url(#SVGID_00000089555758644210014710000000508143813020058294_);" d="
			M747.981,333.713c-7.655,14.721-16.3,24.447-8.715,30.031c2.748,2.023,6.583,1.253,10.734-1.008v-32.969
			C749.356,331.051,748.682,332.365,747.981,333.713z"/>
		
			<linearGradient id="SVGID_00000018925872424781343580000017996257484191300253_" gradientUnits="userSpaceOnUse" x1="720.0865" y1="270.5138" x2="750" y2="270.5138">
			<stop  offset="0" style="stop-color:#FFD060"/>
			<stop  offset="1" style="stop-color:#FFFF60;stop-opacity:0.9567"/>
		</linearGradient>
		
			<path style="clip-path:url(#SVGID_00000174588855833524059100000007284675501222899864_);fill:url(#SVGID_00000018925872424781343580000017996257484191300253_);" d="
			M720.932,293.875c-2.69,4.929,1.398,11.04,7.199,8.381c4.739-2.172,8.787-5.529,12.835-7.405c3.695-1.712,6.487-2.035,9.034-0.61
			v-56.115c-3.168,9.661-8.831,20.335-16.757,34.018C728.529,280.283,723.68,288.841,720.932,293.875z"/>
		<path style="clip-path:url(#SVGID_00000174588855833524059100000007284675501222899864_);fill:#FFD060;" d="M49.135,225.455
			c-1.476-7.381-10.666-5.517-33.679,4.839c-7.742,3.484-11.42,5.613-15.456,7.599v20.435c5.391-2.872,10.811-5.582,14.488-7.518
			C47.754,233.303,50.309,231.322,49.135,225.455z"/>
		<path style="clip-path:url(#SVGID_00000174588855833524059100000007284675501222899864_);fill:#FFD060;" d="M62.297,221.003
			c0,2.673-2.167,4.839-4.839,4.839c-2.673,0-4.839-2.166-4.839-4.839s2.166-4.839,4.839-4.839
			C60.131,216.164,62.297,218.331,62.297,221.003z"/>
		<path style="clip-path:url(#SVGID_00000174588855833524059100000007284675501222899864_);fill:#FFD060;" d="M70.814,215.003
			c0,1.176-0.953,2.129-2.129,2.129s-2.129-0.953-2.129-2.129s0.953-2.129,2.129-2.129S70.814,213.827,70.814,215.003z"/>
		
			<linearGradient id="SVGID_00000170259224769541926820000014365853775971058577_" gradientUnits="userSpaceOnUse" x1="388.3451" y1="-8.5845" x2="345.0711" y2="85.176">
			<stop  offset="0" style="stop-color:#FFD060"/>
			<stop  offset="1" style="stop-color:#FFFF60;stop-opacity:0.9567"/>
		</linearGradient>
		
			<path style="clip-path:url(#SVGID_00000174588855833524059100000007284675501222899864_);fill:url(#SVGID_00000170259224769541926820000014365853775971058577_);" d="
			M356.647-5.148c-4.994,12.911-8.858,20.567-12.191,26.548c-2.894,5.196-1.637,8.295,0.675,8.584
			c3.501,0.438,5.818-2.579,9.89-6.652c4.814-4.814,10.415-5.164,14.899-2.203c3.948,2.607,5.66,8.767-0.458,23.122
			c-8.84,20.744-14.066,28.756-7.79,31.509c4.989,2.188,9.223-2.286,19.956-22.406c7.768-14.563,30.01-52,34.616-57.147"/>
		
			<linearGradient id="SVGID_00000033347349975244003210000017020215678849392821_" gradientUnits="userSpaceOnUse" x1="43.1866" y1="549.9509" x2="135.8062" y2="378.016">
			<stop  offset="0" style="stop-color:#FFD060"/>
			<stop  offset="1" style="stop-color:#FFFF60;stop-opacity:0.9567"/>
		</linearGradient>
		
			<path style="clip-path:url(#SVGID_00000174588855833524059100000007284675501222899864_);fill:url(#SVGID_00000033347349975244003210000017020215678849392821_);" d="
			M151.378,470.937c-7.882-8.757-19.514-3.218-31.48,2.765c-10.847,5.424-19.531,10.808-29.63,2.564
			c-9.993-8.157-5.921-32.716-1.237-48.103c4.868-15.991,11.702-30.246,18.793-45.308c3.467-7.365,9.794-19.125,0.965-27.225
			c-8.83-8.101-28.404-0.489-51.76,26.362c-9.699,11.15-18.465,23.385-29.305,42.685C15.323,446.758,6.08,473.599,2.664,500h150.409
			C154.71,486.413,156.676,476.824,151.378,470.937z"/>
		
			<linearGradient id="SVGID_00000178915693891017060060000007855604730985803446_" gradientUnits="userSpaceOnUse" x1="365.0751" y1="-19.3238" x2="321.8017" y2="74.4356">
			<stop  offset="0" style="stop-color:#FFD060"/>
			<stop  offset="1" style="stop-color:#FFFF60;stop-opacity:0.9567"/>
		</linearGradient>
		
			<path style="clip-path:url(#SVGID_00000174588855833524059100000007284675501222899864_);fill:url(#SVGID_00000178915693891017060060000007855604730985803446_);" d="
			M342.943,33.748c0,1.305-1.058,2.363-2.363,2.363c-1.305,0-2.363-1.058-2.363-2.363c0-1.305,1.058-2.363,2.363-2.363
			C341.885,31.385,342.943,32.443,342.943,33.748z"/>
		
			<linearGradient id="SVGID_00000147914211475231563440000014832285180801072029_" gradientUnits="userSpaceOnUse" x1="398.6056" y1="-3.8486" x2="355.3319" y2="89.9112">
			<stop  offset="0" style="stop-color:#FFD060"/>
			<stop  offset="1" style="stop-color:#FFFF60;stop-opacity:0.9567"/>
		</linearGradient>
		
			<path style="clip-path:url(#SVGID_00000174588855833524059100000007284675501222899864_);fill:url(#SVGID_00000147914211475231563440000014832285180801072029_);" d="
			M361.204,85.338c0,2.077-1.684,3.761-3.762,3.761c-2.077,0-3.761-1.684-3.761-3.761c0-2.077,1.684-3.761,3.761-3.761
			C359.52,81.576,361.204,83.26,361.204,85.338z"/>
		
			<linearGradient id="SVGID_00000119103373633818661200000001407525987692621731_" gradientUnits="userSpaceOnUse" x1="195.1156" y1="-7.544" x2="158.3327" y2="45.8272">
			<stop  offset="0" style="stop-color:#FFD060"/>
			<stop  offset="1" style="stop-color:#FFFF60;stop-opacity:0.9567"/>
		</linearGradient>
		
			<path style="clip-path:url(#SVGID_00000174588855833524059100000007284675501222899864_);fill:url(#SVGID_00000119103373633818661200000001407525987692621731_);" d="
			M202.451,36.304C217.956,34.443,227.842,18.651,233.904,0H141.13c9.284,2.587,18.303,6.82,27.091,13.629
			C181.193,23.679,188.052,38.031,202.451,36.304z"/>
		
			<linearGradient id="SVGID_00000050644609264369149590000013143066805558909119_" gradientUnits="userSpaceOnUse" x1="185.4441" y1="-14.2095" x2="148.6613" y2="39.1617">
			<stop  offset="0" style="stop-color:#FFD060"/>
			<stop  offset="1" style="stop-color:#FFFF60;stop-opacity:0.9567"/>
		</linearGradient>
		
			<path style="clip-path:url(#SVGID_00000174588855833524059100000007284675501222899864_);fill:url(#SVGID_00000050644609264369149590000013143066805558909119_);" d="
			M171.538,36.138c-2.787,4.415-11.533,3.899-19.535-1.153c-8.002-5.052-12.23-12.726-9.442-17.141
			c2.787-4.415,11.533-3.899,19.535,1.153C170.097,24.049,174.325,31.723,171.538,36.138z"/>
		
			<linearGradient id="SVGID_00000091008061754808060440000014217048279983285419_" gradientUnits="userSpaceOnUse" x1="210.3647" y1="2.9655" x2="173.5818" y2="56.3367">
			<stop  offset="0" style="stop-color:#FFD060"/>
			<stop  offset="1" style="stop-color:#FFFF60;stop-opacity:0.9567"/>
		</linearGradient>
		
			<path style="clip-path:url(#SVGID_00000174588855833524059100000007284675501222899864_);fill:url(#SVGID_00000091008061754808060440000014217048279983285419_);" d="
			M184.981,45.178c0,2.048-1.66,3.709-3.708,3.709c-2.048,0-3.708-1.66-3.708-3.709c0-2.048,1.66-3.708,3.708-3.708
			C183.321,41.469,184.981,43.129,184.981,45.178z"/>
		
			<linearGradient id="SVGID_00000034767885556184206900000015325210722432018364_" gradientUnits="userSpaceOnUse" x1="690.3951" y1="-9.2151" x2="646.4" y2="114.8366">
			<stop  offset="0" style="stop-color:#FFD060"/>
			<stop  offset="1" style="stop-color:#FFFF60;stop-opacity:0.9567"/>
		</linearGradient>
		
			<path style="clip-path:url(#SVGID_00000174588855833524059100000007284675501222899864_);fill:url(#SVGID_00000034767885556184206900000015325210722432018364_);" d="
			M647.025-16.528c-7.809,21.865-11.338,35.529-4.016,37.706c8.255,2.454,16.957-14.502,31.236-13.164
			c14.279,1.339,19.634,12.874,10.948,42.573c-11.171,38.194-23.442,59.836-10.056,64.521c13.387,4.685,20.75-11.602,29.228-34.582
			C716.434,47.81,735.6-8.05,735.6-8.05"/>
		
			<linearGradient id="SVGID_00000075160162662435797460000003505343200204907919_" gradientUnits="userSpaceOnUse" x1="715.0209" y1="-0.4814" x2="671.0261" y2="123.5698">
			<stop  offset="0" style="stop-color:#FFD060"/>
			<stop  offset="1" style="stop-color:#FFFF60;stop-opacity:0.9567"/>
		</linearGradient>
		
			<circle style="clip-path:url(#SVGID_00000174588855833524059100000007284675501222899864_);fill:url(#SVGID_00000075160162662435797460000003505343200204907919_);" cx="668.85" cy="129.704" r="5.416"/>
		
			<ellipse transform="matrix(0.7071 -0.7071 0.7071 0.7071 -273.9174 245.1203)" style="clip-path:url(#SVGID_00000174588855833524059100000007284675501222899864_);fill:none;stroke:#FFD060;stroke-miterlimit:10;" cx="158.928" cy="453.208" rx="8.757" ry="8.757"/>
		
			<ellipse transform="matrix(0.9327 -0.3606 0.3606 0.9327 -113.326 67.6088)" style="clip-path:url(#SVGID_00000174588855833524059100000007284675501222899864_);fill:none;stroke:#FFD060;stroke-miterlimit:10;" cx="124.522" cy="337.506" rx="12.041" ry="12.041"/>
		<g style="clip-path:url(#SVGID_00000174588855833524059100000007284675501222899864_);">
			
				<ellipse transform="matrix(0.2771 -0.9608 0.9608 0.2771 127.6158 898.929)" style="fill:none;stroke:#FFFFFF;stroke-miterlimit:10;" cx="661.231" cy="364.652" rx="16.9" ry="16.9"/>
			<path style="fill:none;stroke:#FFFFFF;stroke-miterlimit:10;" d="M686.582,342.226c0-2.333,1.892-4.225,4.225-4.225
				c2.333,0,4.225,1.892,4.225,4.225c0,2.334-1.892,4.225-4.225,4.225C688.473,346.451,686.582,344.56,686.582,342.226z"/>
			
				<ellipse transform="matrix(0.7071 -0.7071 0.7071 0.7071 -84.2353 179.066)" style="fill:none;stroke:#FFFFFF;stroke-miterlimit:10;" cx="174.034" cy="191.214" rx="18.106" ry="18.106"/>
			<path style="fill:none;stroke:#FFFFFF;stroke-miterlimit:10;" d="M146.539,197.92c0,2.222-1.801,4.024-4.024,4.024
				c-2.222,0-4.024-1.801-4.024-4.024s1.801-4.024,4.024-4.024C144.738,193.896,146.539,195.698,146.539,197.92z"/>
			
				<ellipse transform="matrix(0.1726 -0.985 0.985 0.1726 445.4292 612.2432)" style="fill:none;stroke:#FFFFFF;stroke-miterlimit:10;" cx="587.126" cy="40.999" rx="12.741" ry="12.741"/>
			<circle style="fill:none;stroke:#FFFFFF;stroke-miterlimit:10;" cx="560.302" cy="44.352" r="4.024"/>
			
				<ellipse transform="matrix(0.7728 -0.6346 0.6346 0.7728 -170.8706 446.9662)" style="fill:none;stroke:#FFFFFF;stroke-miterlimit:10;" cx="538.843" cy="462.138" rx="10.73" ry="10.73"/>
			<path style="fill:none;stroke:#FFFFFF;stroke-miterlimit:10;" d="M124.409,28.928c0,3.333-2.702,6.035-6.035,6.035
				s-6.035-2.702-6.035-6.035s2.702-6.035,6.035-6.035S124.409,25.594,124.409,28.928z"/>
			
				<ellipse transform="matrix(0.2298 -0.9732 0.9732 0.2298 -46.9651 140.6807)" style="fill:none;stroke:#FFFFFF;stroke-miterlimit:10;" cx="65.396" cy="100.012" rx="18.106" ry="18.106"/>
			<circle style="fill:none;stroke:#FFFFFF;stroke-miterlimit:10;" cx="29.854" cy="92.635" r="4.694"/>
			<circle style="fill:none;stroke:#FFFFFF;stroke-miterlimit:10;" cx="247.801" cy="441.349" r="11.4"/>
		</g>
		
			<linearGradient id="SVGID_00000060008175192076874260000010733520670923306392_" gradientUnits="userSpaceOnUse" x1="584.1873" y1="264.978" x2="685.9062" y2="264.978">
			<stop  offset="0" style="stop-color:#FF1E61"/>
			<stop  offset="1" style="stop-color:#FF1E61;stop-opacity:0"/>
		</linearGradient>
		
			<rect x="584.187" y="262.523" style="clip-path:url(#SVGID_00000174588855833524059100000007284675501222899864_);fill:url(#SVGID_00000060008175192076874260000010733520670923306392_);" width="101.719" height="4.911"/>
		
			<linearGradient id="SVGID_00000092417697852393965280000017273810713997321646_" gradientUnits="userSpaceOnUse" x1="241.6423" y1="412.3187" x2="291.0804" y2="412.3187" gradientTransform="matrix(-1 0 0 1 426.5485 0)">
			<stop  offset="0" style="stop-color:#FF1E61"/>
			<stop  offset="1" style="stop-color:#FF1E61;stop-opacity:0"/>
		</linearGradient>
		
			<polygon style="clip-path:url(#SVGID_00000174588855833524059100000007284675501222899864_);fill:url(#SVGID_00000092417697852393965280000017273810713997321646_);" points="
			135.468,414.774 184.906,414.774 184.906,409.863 135.468,409.863 		"/>
		
			<linearGradient id="SVGID_00000003062716240539660930000000955163475210311573_" gradientUnits="userSpaceOnUse" x1="213.1577" y1="402.5857" x2="279.8909" y2="402.5857" gradientTransform="matrix(-1 0 0 1 426.5485 0)">
			<stop  offset="0" style="stop-color:#FF1E61"/>
			<stop  offset="1" style="stop-color:#FF1E61;stop-opacity:0"/>
		</linearGradient>
		
			<polygon style="clip-path:url(#SVGID_00000174588855833524059100000007284675501222899864_);fill:url(#SVGID_00000003062716240539660930000000955163475210311573_);" points="
			146.658,405.041 213.391,405.041 213.391,400.13 146.658,400.13 		"/>
		
			<linearGradient id="SVGID_00000127023736518020842860000001027020198136984715_" gradientUnits="userSpaceOnUse" x1="552.9888" y1="276.9445" x2="654.7077" y2="276.9445">
			<stop  offset="0" style="stop-color:#FF1E61"/>
			<stop  offset="1" style="stop-color:#FF1E61;stop-opacity:0"/>
		</linearGradient>
		
			<rect x="552.989" y="274.489" style="clip-path:url(#SVGID_00000174588855833524059100000007284675501222899864_);fill:url(#SVGID_00000127023736518020842860000001027020198136984715_);" width="101.719" height="4.911"/>
		
			<linearGradient id="SVGID_00000123398849537196612590000002356087425192174764_" gradientUnits="userSpaceOnUse" x1="309.5338" y1="4219.9873" x2="411.2526" y2="4219.9873" gradientTransform="matrix(-1 0 0 -1 486.0263 4296.9019)">
			<stop  offset="0" style="stop-color:#FF1E61"/>
			<stop  offset="1" style="stop-color:#FF1E61;stop-opacity:0"/>
		</linearGradient>
		
			<polygon style="clip-path:url(#SVGID_00000174588855833524059100000007284675501222899864_);fill:url(#SVGID_00000123398849537196612590000002356087425192174764_);" points="
			74.774,74.459 176.492,74.459 176.492,79.37 74.774,79.37 		"/>
		
			<linearGradient id="SVGID_00000007403036122648883840000009657171957169562537_" gradientUnits="userSpaceOnUse" x1="278.3353" y1="4231.9541" x2="380.0541" y2="4231.9541" gradientTransform="matrix(-1 0 0 -1 486.0263 4296.9019)">
			<stop  offset="0" style="stop-color:#FF1E61"/>
			<stop  offset="1" style="stop-color:#FF1E61;stop-opacity:0"/>
		</linearGradient>
		
			<polygon style="clip-path:url(#SVGID_00000174588855833524059100000007284675501222899864_);fill:url(#SVGID_00000007403036122648883840000009657171957169562537_);" points="
			105.972,62.493 207.691,62.493 207.691,67.403 105.972,67.403 		"/>
	</g>
</g>
</svg>
