<?xml version="1.0" encoding="utf-8"?>
<!-- Generator: Adobe Illustrator 27.5.0, SVG Export Plug-In . SVG Version: 6.00 Build 0)  -->
<svg version="1.1" xmlns="http://www.w3.org/2000/svg" xmlns:xlink="http://www.w3.org/1999/xlink" x="0px" y="0px"
	 viewBox="0 0 750 500" style="enable-background:new 0 0 750 500;" xml:space="preserve">
<g id="BACKGROUND">
	<path style="fill:#003499;" d="M750,0v500H11.31C5.67,500,0,500,0,500V0H750z"/>
</g>
<g id="OBJECTS">
	<g>
		<defs>
			<path id="SVGID_1_" d="M750,0v500H11.31C5.67,500,0,500,0,500V0H750z"/>
		</defs>
		<clipPath id="SVGID_00000140733531559894229800000000272548302858084748_">
			<use xlink:href="#SVGID_1_"  style="overflow:visible;"/>
		</clipPath>
		<g style="opacity:0.3;clip-path:url(#SVGID_00000140733531559894229800000000272548302858084748_);">
			<g>
				<path style="fill:#0383FC;" d="M42.777,469.597c-1.577,1.077-3.207,2.21-4.162,3.864c-0.955,1.654-1.016,3.991,0.382,5.291
					c1.183,1.1,3.062,1.141,4.557,0.529c1.495-0.612,2.696-1.76,3.858-2.882c10.96-10.583,21.92-21.166,32.879-31.749
					C66.938,451.348,55.438,461.512,42.777,469.597z"/>
				<path style="fill:#0383FC;" d="M89.264,433.585c-1.577,1.077-3.207,2.21-4.162,3.864c-0.955,1.654-1.016,3.991,0.382,5.291
					c1.183,1.1,3.062,1.141,4.557,0.529c1.495-0.612,2.696-1.76,3.858-2.882c10.96-10.583,21.92-21.166,32.88-31.749
					C113.425,415.336,101.926,425.5,89.264,433.585z"/>
				<path style="fill:#0383FC;" d="M27.404,504.607c-1.577,1.077-3.207,2.21-4.162,3.864c-0.955,1.654-1.016,3.991,0.382,5.291
					c1.183,1.1,3.062,1.141,4.557,0.529c1.495-0.612,2.695-1.76,3.858-2.882c10.96-10.583,21.92-21.166,32.88-31.749
					C51.565,486.358,40.066,496.521,27.404,504.607z"/>
				<path style="fill:#0383FC;" d="M73.892,468.594c-1.577,1.077-3.207,2.21-4.162,3.864c-0.954,1.654-1.016,3.991,0.382,5.291
					c1.183,1.1,3.062,1.141,4.557,0.529c1.495-0.612,2.695-1.76,3.858-2.882c10.96-10.583,21.92-21.166,32.879-31.749
					C98.052,450.345,86.553,460.509,73.892,468.594z"/>
				<path style="fill:#0383FC;" d="M120.379,432.582c-1.577,1.077-3.207,2.21-4.162,3.864c-0.955,1.654-1.016,3.991,0.382,5.291
					c1.183,1.1,3.062,1.141,4.557,0.529c1.495-0.612,2.696-1.76,3.858-2.882c10.96-10.583,21.92-21.166,32.879-31.749
					C144.54,414.333,133.04,424.497,120.379,432.582z"/>
				<path style="fill:#0383FC;" d="M22.553,531.336c-1.577,1.077-3.207,2.21-4.162,3.864c-0.955,1.654-1.016,3.991,0.382,5.291
					c1.183,1.1,3.062,1.141,4.557,0.529c1.495-0.612,2.695-1.76,3.858-2.882c10.96-10.583,21.92-21.166,32.88-31.749
					C46.713,513.087,35.214,523.25,22.553,531.336z"/>
				<path style="fill:#0383FC;" d="M69.04,495.323c-1.577,1.077-3.207,2.21-4.162,3.864c-0.955,1.654-1.016,3.991,0.382,5.291
					c1.183,1.1,3.062,1.141,4.557,0.529c1.495-0.612,2.695-1.76,3.858-2.882c10.96-10.583,21.92-21.166,32.879-31.749
					C93.201,477.074,81.701,487.238,69.04,495.323z"/>
				<path style="fill:#0383FC;" d="M115.527,459.311c-1.577,1.077-3.207,2.21-4.162,3.864c-0.955,1.654-1.016,3.991,0.382,5.291
					c1.183,1.1,3.062,1.141,4.557,0.529c1.495-0.612,2.696-1.76,3.858-2.882c10.96-10.583,21.92-21.166,32.879-31.749
					C139.688,441.062,128.189,451.226,115.527,459.311z"/>
				<path style="fill:#0383FC;" d="M53.667,530.333c-1.577,1.077-3.207,2.21-4.162,3.864c-0.955,1.654-1.016,3.991,0.382,5.291
					c1.183,1.1,3.062,1.141,4.557,0.529s2.696-1.76,3.858-2.882c10.96-10.583,21.92-21.166,32.879-31.749
					C77.828,512.084,66.329,522.248,53.667,530.333z"/>
				<path style="fill:#0383FC;" d="M100.155,494.321c-1.577,1.077-3.207,2.21-4.162,3.864c-0.955,1.654-1.016,3.991,0.382,5.291
					c1.183,1.1,3.062,1.141,4.557,0.529c1.495-0.612,2.695-1.76,3.858-2.882c10.96-10.583,21.92-21.166,32.88-31.749
					C124.315,476.072,112.816,486.236,100.155,494.321z"/>
				<path style="fill:#0383FC;" d="M146.642,458.309c-1.577,1.077-3.207,2.21-4.162,3.864c-0.954,1.654-1.016,3.991,0.382,5.291
					c1.183,1.1,3.062,1.141,4.557,0.529c1.495-0.612,2.695-1.76,3.858-2.882c10.96-10.583,21.92-21.166,32.879-31.749
					C170.803,440.06,159.303,450.223,146.642,458.309z"/>
				<path style="fill:#0383FC;" d="M95.303,521.05c-1.577,1.077-3.207,2.21-4.162,3.864c-0.955,1.654-1.016,3.991,0.382,5.291
					c1.183,1.1,3.062,1.141,4.557,0.529c1.495-0.612,2.696-1.76,3.858-2.882c10.96-10.583,21.92-21.166,32.879-31.749
					C119.464,502.801,107.964,512.965,95.303,521.05z"/>
				<path style="fill:#0383FC;" d="M141.79,485.038c-1.577,1.077-3.207,2.21-4.162,3.864c-0.954,1.654-1.016,3.991,0.383,5.291
					c1.183,1.1,3.062,1.141,4.557,0.529c1.495-0.612,2.696-1.76,3.858-2.882c10.96-10.583,21.92-21.166,32.879-31.749
					C165.951,466.789,154.451,476.952,141.79,485.038z"/>
			</g>
			<g>
				<path style="fill:#0383FC;" d="M383.973,43.064c-1.577,1.077-3.207,2.21-4.162,3.864c-0.955,1.654-1.016,3.991,0.383,5.291
					c1.183,1.1,3.062,1.141,4.557,0.529c1.495-0.612,2.696-1.76,3.858-2.882c10.96-10.583,21.92-21.166,32.88-31.749
					C408.134,24.815,396.635,34.978,383.973,43.064z"/>
				<path style="fill:#0383FC;" d="M430.461,7.051c-1.577,1.077-3.207,2.21-4.162,3.864c-0.954,1.655-1.016,3.991,0.383,5.291
					c1.183,1.1,3.062,1.141,4.557,0.529c1.495-0.612,2.695-1.76,3.858-2.882c10.96-10.583,21.92-21.166,32.879-31.749
					C454.621-11.198,443.122-1.034,430.461,7.051z"/>
				<path style="fill:#0383FC;" d="M368.601,78.073c-1.577,1.077-3.207,2.21-4.162,3.864c-0.954,1.654-1.016,3.991,0.383,5.291
					c1.183,1.1,3.062,1.141,4.557,0.529c1.495-0.612,2.695-1.76,3.858-2.882c10.96-10.583,21.92-21.166,32.879-31.749
					C392.761,59.824,381.262,69.988,368.601,78.073z"/>
				<path style="fill:#0383FC;" d="M415.088,42.061c-1.577,1.077-3.207,2.21-4.162,3.864c-0.955,1.654-1.016,3.991,0.383,5.291
					c1.183,1.1,3.062,1.141,4.557,0.529c1.495-0.612,2.696-1.76,3.858-2.882c10.96-10.583,21.92-21.166,32.879-31.749
					C439.249,23.812,427.749,33.976,415.088,42.061z"/>
				<path style="fill:#0383FC;" d="M461.575,6.049c-1.577,1.077-3.207,2.21-4.162,3.864c-0.955,1.654-1.016,3.991,0.383,5.291
					c1.183,1.1,3.062,1.141,4.557,0.529c1.495-0.612,2.695-1.76,3.858-2.882c10.96-10.583,21.92-21.166,32.88-31.749
					C485.736-12.2,474.237-2.036,461.575,6.049z"/>
				<path style="fill:#0383FC;" d="M363.749,104.802c-1.577,1.077-3.207,2.21-4.162,3.864c-0.954,1.654-1.016,3.991,0.383,5.291
					c1.183,1.1,3.062,1.141,4.557,0.529c1.495-0.612,2.696-1.76,3.858-2.882c10.96-10.583,21.92-21.166,32.879-31.749
					C387.91,86.553,376.41,96.717,363.749,104.802z"/>
				<path style="fill:#0383FC;" d="M410.236,68.79c-1.577,1.077-3.207,2.21-4.162,3.864c-0.955,1.654-1.016,3.991,0.383,5.291
					c1.183,1.1,3.062,1.141,4.557,0.529c1.495-0.612,2.696-1.76,3.858-2.882c10.96-10.583,21.92-21.166,32.879-31.749
					C434.397,50.541,422.898,60.705,410.236,68.79z"/>
				<path style="fill:#0383FC;" d="M456.723,32.778c-1.577,1.077-3.207,2.21-4.162,3.864c-0.955,1.654-1.016,3.991,0.383,5.291
					c1.183,1.1,3.062,1.141,4.557,0.529c1.495-0.612,2.696-1.76,3.858-2.882c10.96-10.583,21.92-21.166,32.88-31.749
					C480.884,14.529,469.385,24.693,456.723,32.778z"/>
				<path style="fill:#0383FC;" d="M394.864,103.799c-1.577,1.077-3.207,2.21-4.162,3.864c-0.955,1.654-1.016,3.991,0.382,5.291
					c1.183,1.1,3.062,1.141,4.557,0.529s2.695-1.76,3.858-2.882c10.96-10.583,21.92-21.166,32.879-31.749
					C419.024,85.55,407.525,95.714,394.864,103.799z"/>
				<path style="fill:#0383FC;" d="M441.351,67.787c-1.577,1.077-3.207,2.21-4.162,3.864c-0.954,1.654-1.016,3.991,0.382,5.291
					c1.183,1.1,3.062,1.141,4.557,0.529c1.495-0.612,2.695-1.76,3.858-2.882c10.96-10.583,21.92-21.166,32.879-31.749
					C465.512,49.538,454.012,59.702,441.351,67.787z"/>
				<path style="fill:#0383FC;" d="M487.838,31.775c-1.577,1.077-3.207,2.21-4.162,3.864c-0.955,1.654-1.016,3.991,0.382,5.291
					c1.183,1.1,3.062,1.141,4.557,0.529c1.495-0.612,2.696-1.76,3.858-2.882c10.96-10.583,21.92-21.166,32.879-31.749
					C511.999,13.526,500.5,23.69,487.838,31.775z"/>
				<path style="fill:#0383FC;" d="M436.499,94.516c-1.577,1.077-3.207,2.21-4.162,3.864c-0.954,1.654-1.016,3.991,0.383,5.291
					c1.183,1.1,3.062,1.141,4.557,0.529c1.495-0.612,2.695-1.76,3.858-2.882c10.96-10.583,21.92-21.166,32.879-31.749
					C460.66,76.267,449.16,86.431,436.499,94.516z"/>
				<path style="fill:#0383FC;" d="M482.986,58.504c-1.577,1.077-3.207,2.21-4.162,3.864s-1.016,3.991,0.383,5.291
					c1.183,1.1,3.062,1.141,4.557,0.529c1.495-0.612,2.696-1.76,3.858-2.882c10.96-10.583,21.92-21.166,32.879-31.749
					C507.147,40.255,495.648,50.419,482.986,58.504z"/>
			</g>
			<g>
				<path style="fill:#0383FC;" d="M659.206,199.135c-1.077-1.577-2.21-3.207-3.864-4.162c-1.654-0.954-3.991-1.016-5.291,0.382
					c-1.1,1.183-1.141,3.062-0.529,4.557c0.612,1.495,1.76,2.696,2.882,3.858c10.583,10.96,21.166,21.92,31.749,32.879
					C677.455,223.295,667.292,211.796,659.206,199.135z"/>
				<path style="fill:#0383FC;" d="M695.219,245.622c-1.077-1.577-2.21-3.207-3.864-4.162c-1.654-0.955-3.991-1.016-5.291,0.382
					c-1.1,1.183-1.141,3.062-0.529,4.557c0.612,1.495,1.76,2.696,2.882,3.858c10.583,10.96,21.166,21.92,31.749,32.879
					C713.468,269.783,703.304,258.283,695.219,245.622z"/>
				<path style="fill:#0383FC;" d="M624.197,183.762c-1.077-1.577-2.21-3.207-3.864-4.162c-1.654-0.955-3.991-1.016-5.291,0.382
					c-1.1,1.183-1.141,3.062-0.529,4.557c0.612,1.495,1.76,2.695,2.882,3.858c10.583,10.96,21.166,21.92,31.749,32.88
					C642.446,207.923,632.282,196.423,624.197,183.762z"/>
				<path style="fill:#0383FC;" d="M660.209,230.249c-1.077-1.577-2.21-3.207-3.864-4.162c-1.654-0.954-3.991-1.016-5.291,0.382
					c-1.1,1.183-1.141,3.062-0.529,4.557c0.612,1.495,1.76,2.695,2.882,3.858c10.583,10.96,21.166,21.92,31.749,32.879
					C678.458,254.41,668.294,242.911,660.209,230.249z"/>
				<path style="fill:#0383FC;" d="M696.221,276.737c-1.077-1.577-2.21-3.207-3.864-4.162c-1.654-0.955-3.991-1.016-5.291,0.383
					c-1.1,1.183-1.141,3.062-0.529,4.557c0.612,1.495,1.76,2.696,2.882,3.858c10.583,10.96,21.166,21.92,31.749,32.879
					C714.47,300.897,704.306,289.398,696.221,276.737z"/>
				<path style="fill:#0383FC;" d="M597.468,178.91c-1.077-1.577-2.21-3.207-3.864-4.162c-1.654-0.955-3.991-1.016-5.291,0.383
					c-1.1,1.183-1.141,3.062-0.529,4.557c0.612,1.495,1.76,2.696,2.882,3.858c10.583,10.96,21.166,21.92,31.749,32.88
					C615.717,203.071,605.553,191.572,597.468,178.91z"/>
				<path style="fill:#0383FC;" d="M633.48,225.398c-1.077-1.577-2.21-3.207-3.864-4.162c-1.654-0.954-3.991-1.016-5.291,0.383
					c-1.1,1.183-1.141,3.062-0.529,4.557c0.612,1.495,1.76,2.696,2.882,3.858c10.583,10.96,21.166,21.92,31.749,32.879
					C651.729,249.558,641.565,238.059,633.48,225.398z"/>
				<path style="fill:#0383FC;" d="M669.492,271.885c-1.077-1.577-2.21-3.207-3.864-4.162c-1.654-0.954-3.991-1.016-5.291,0.383
					c-1.1,1.183-1.141,3.062-0.529,4.557c0.612,1.495,1.76,2.696,2.882,3.858c10.583,10.96,21.166,21.92,31.749,32.879
					C687.741,296.046,677.577,284.546,669.492,271.885z"/>
				<path style="fill:#0383FC;" d="M598.471,210.025c-1.077-1.577-2.21-3.207-3.864-4.162c-1.654-0.955-3.991-1.016-5.291,0.383
					c-1.1,1.183-1.141,3.062-0.529,4.557c0.612,1.495,1.76,2.696,2.882,3.858c10.583,10.96,21.166,21.92,31.749,32.879
					C616.719,234.186,606.556,222.686,598.471,210.025z"/>
				<path style="fill:#0383FC;" d="M634.483,256.512c-1.077-1.577-2.21-3.207-3.864-4.162c-1.654-0.955-3.991-1.016-5.291,0.382
					c-1.1,1.183-1.141,3.062-0.529,4.557c0.612,1.495,1.76,2.695,2.882,3.858c10.583,10.96,21.166,21.92,31.749,32.88
					C652.732,280.673,642.568,269.173,634.483,256.512z"/>
				<path style="fill:#0383FC;" d="M670.495,303c-1.077-1.577-2.21-3.207-3.864-4.162c-1.654-0.954-3.991-1.016-5.291,0.383
					c-1.1,1.183-1.141,3.062-0.529,4.557c0.612,1.495,1.76,2.696,2.882,3.858c10.583,10.96,21.166,21.92,31.749,32.879
					C688.744,327.16,678.58,315.661,670.495,303z"/>
				<path style="fill:#0383FC;" d="M607.753,251.66c-1.077-1.577-2.21-3.207-3.864-4.162c-1.654-0.955-3.991-1.016-5.291,0.383
					c-1.1,1.183-1.141,3.062-0.529,4.557c0.612,1.495,1.76,2.696,2.882,3.858c10.583,10.96,21.166,21.92,31.749,32.879
					C626.003,275.821,615.839,264.322,607.753,251.66z"/>
				<path style="fill:#0383FC;" d="M643.766,298.148c-1.077-1.577-2.21-3.207-3.864-4.162c-1.654-0.954-3.991-1.016-5.291,0.382
					c-1.1,1.183-1.141,3.062-0.529,4.557c0.612,1.495,1.76,2.695,2.882,3.858c10.583,10.96,21.166,21.92,31.749,32.879
					C662.015,322.308,651.851,310.809,643.766,298.148z"/>
			</g>
		</g>
		<g style="clip-path:url(#SVGID_00000140733531559894229800000000272548302858084748_);">
			<path style="opacity:0.3;fill:#004DCE;" d="M765.927,49.468c-0.53,0.513-1.048,1.028-1.543,1.54
				C746.03,70,727.677,88.992,709.323,107.984c-19.931,20.624-40.223,41.764-52.355,67.752
				c-12.132,25.989-14.823,58.183,0.362,82.515c10.086,16.163,31.923,27.632,48.35,17.982c3.866-2.271,7.192-5.568,11.451-6.973
				c12.07-3.981,23.475,9.75,24.039,22.447c0.929,20.917-18.711,40.379-39.619,39.258c-14.629-0.784-27.575-10.036-37.269-21.02
				c-9.694-10.984-16.973-23.878-26.139-35.306c-9.166-11.429-20.964-21.737-35.336-24.577
				c-14.372-2.839-31.359,4.074-35.955,17.984c-3.757,11.372,1.414,23.899,8.773,33.347c7.359,9.449,16.89,17.076,23.927,26.766
				c8.733,12.025,6.141,26.608,13.307,38.615c8.458,14.171,27.543,25.474,39.915,36.164c15.897,13.735,31.794,27.469,47.69,41.204
				c13.791,11.916,29.587,31.472,45.82,39.589c5.184,4.479,10.865,9.175,17.693,9.728c0.656,0.053,1.306,0.055,1.951,0.028V49.468z"
				/>
			<path style="fill:#0163E2;" d="M765.927,59.468c-0.53,0.513-1.048,1.028-1.543,1.54C746.03,80,727.677,98.992,709.323,117.984
				c-19.931,20.624-40.223,41.764-52.355,67.752c-12.132,25.989-14.823,58.183,0.362,82.515
				c10.086,16.163,31.923,27.632,48.35,17.982c3.866-2.271,7.192-5.568,11.451-6.973c12.07-3.981,23.475,9.75,24.039,22.447
				c0.929,20.917-18.711,40.379-39.619,39.258c-14.629-0.784-27.575-10.036-37.269-21.02c-9.694-10.984-16.973-23.878-26.139-35.306
				c-9.166-11.429-20.964-21.737-35.336-24.577c-14.372-2.839-31.359,4.073-35.955,17.984c-3.757,11.372,1.414,23.899,8.773,33.347
				c7.359,9.449,16.89,17.076,23.927,26.766c8.733,12.025,6.141,26.608,13.307,38.615c8.458,14.171,27.543,25.474,39.915,36.164
				c15.897,13.735,31.794,27.469,47.69,41.204c13.791,11.916,29.587,31.472,45.82,39.589c5.184,4.479,10.865,9.175,17.693,9.728
				c0.656,0.053,1.306,0.055,1.951,0.028V59.468z"/>
			<path style="opacity:0.3;fill:#004DCE;" d="M767.611,405.163c-1.87,0.75-3.627,1.914-5.103,3.263
				c-3.32,3.035-5.721,6.944-8.88,10.146c-8.349,8.462-21.344,11.078-33.074,9.148c-11.73-1.93-22.422-7.838-32.298-14.455
				c-12.474-8.358-24.071-18.019-34.567-28.755c-15.876-16.238-29.227-35.01-48.203-47.875
				c-15.863-10.754-36.127-15.125-54.82-17.765c-13.477-1.903-27.766-1.346-39.908,4.804c-12.142,6.151-21.607,18.787-21.092,32.388
				c0.588,15.537,13.812,28.281,28.517,33.332c14.705,5.051,30.705,4.043,46.219,3.024c15.514-1.018,31.54-1.92,46.179,3.319
				c8.057,2.884,16.325,9.038,16.464,17.595c0.112,6.896-5.425,12.899-11.854,15.397c-6.429,2.499-13.573,2.191-20.439,1.536
				c-41.185-3.93-81.217-19.312-114.437-43.971c-18.102-13.437-34.531-29.747-55.224-38.694
				c-20.693-8.947-47.949-8.299-62.389,9.013c-12.037,14.431-11.326,36.582-2.106,52.957c9.22,16.375,25.386,27.74,42.291,35.948
				c29.282,14.217,62.366,20.506,94.822,18.027c22.05-1.684,43.804-7.322,65.915-6.953c22.111,0.368,45.882,8.228,57.584,26.992
				c4.202,6.736,6.725,14.63,9.865,21.992c0.013,0.031,0.039,0.06,0.06,0.09h53.733c1.242-0.056,2.138-0.09,2.589-0.09
				c14.592,0,29.454-0.825,44.019,0.039c0.169,0.01,0.336,0.036,0.505,0.05h35.635V405.163z"/>
			<path style="fill:#0274F4;" d="M767.611,415.163c-1.87,0.75-3.627,1.914-5.103,3.263c-3.32,3.035-5.721,6.944-8.88,10.146
				c-8.349,8.462-21.344,11.078-33.074,9.148c-11.73-1.93-22.422-7.838-32.298-14.455c-12.474-8.358-24.071-18.019-34.567-28.755
				c-15.876-16.238-29.227-35.01-48.203-47.875c-15.863-10.754-36.127-15.125-54.82-17.765c-13.477-1.903-27.766-1.346-39.908,4.804
				c-12.142,6.151-21.607,18.787-21.092,32.388c0.588,15.537,13.812,28.281,28.517,33.332c14.705,5.051,30.705,4.043,46.219,3.024
				c15.514-1.018,31.54-1.92,46.179,3.319c8.057,2.884,16.325,9.038,16.464,17.595c0.112,6.896-5.425,12.899-11.854,15.397
				c-6.429,2.499-13.573,2.191-20.439,1.536c-41.185-3.93-81.217-19.312-114.437-43.971c-18.102-13.437-34.531-29.747-55.224-38.694
				c-20.693-8.947-47.949-8.299-62.389,9.013c-12.037,14.431-11.326,36.582-2.106,52.957c9.22,16.375,25.386,27.74,42.291,35.948
				c29.282,14.217,62.366,20.506,94.822,18.027c22.05-1.684,43.804-7.322,65.915-6.953c22.111,0.368,45.882,8.228,57.584,26.992
				c4.202,6.736,6.725,14.63,9.865,21.992c0.013,0.031,0.039,0.06,0.06,0.09h53.733c1.242-0.056,2.138-0.09,2.589-0.09
				c14.592,0,29.454-0.825,44.019,0.039c0.169,0.01,0.336,0.036,0.505,0.05h35.635V415.163z"/>
			<path style="opacity:0.3;fill:#004DCE;" d="M212.54,429.597c8.188,5.151,20.819,7.261,22.067,16.854
				c0.741,5.698-3.725,11.012-8.996,13.299c-5.271,2.287-11.203,2.285-16.945,2.492c-40.435,1.456-86.749,26.134-116.388,53.335
				l562,0.09c0-33.333-26.09-58.149-50.27-67.664c-18.65-7.339-39.172-8.558-59.186-7.523c-20.015,1.035-39.868,4.229-59.876,5.376
				c-59.684,3.422-120.309-11.947-171.155-43.389c-15.812-9.778-30.932-21.177-48.505-27.242
				c-17.573-6.065-38.792-5.77-52.862,6.381C198.353,393.757,196.804,419.698,212.54,429.597z"/>
			<path style="fill:#0383FC;" d="M212.54,439.597c8.188,5.151,20.819,7.261,22.067,16.854c0.741,5.698-3.725,11.012-8.996,13.299
				c-5.271,2.287-11.203,2.285-16.945,2.492c-40.435,1.456-81.075,16.134-110.714,43.335h550.903
				c-1.745-23.919-20.667-48.059-44.847-57.574c-18.65-7.339-39.172-8.558-59.186-7.523c-20.015,1.035-39.868,4.229-59.876,5.376
				c-59.684,3.422-120.309-11.947-171.155-43.389c-15.812-9.778-30.932-21.177-48.505-27.242
				c-17.573-6.065-38.792-5.77-52.862,6.381C198.353,403.757,196.804,429.698,212.54,439.597z"/>
			<path style="opacity:0.3;fill:#004DCE;" d="M-19.722-4v257.751c1.269-1.973,2.363-4.037,3.209-6.123
				c12.255-30.194,13.546-62.666,29.086-92.686c6.89-13.31,15.74-26.76,29.475-32.761c13.361-5.837,31.287-2.112,38.499,10.56
				c7.211,12.672-1.742,32.254-16.322,32.392c-4.866,0.046-9.545-1.833-14.387-2.318c-19.017-1.906-34.32,21.154-28.017,39.197
				s28.552,27.302,47.071,22.576c18.519-4.727,32.675-20.697,39.379-38.595c9.386-25.055,5.487-52.752,8.451-78.841
				c3.165-27.863,12.709-53.758,26.537-78.017C150.05,17.223,159.077,6.294,168.936-4H-19.722z"/>
			<path style="fill:#0163E2;" d="M-19.722-14v257.751c1.269-1.973,2.363-4.037,3.209-6.123
				c12.255-30.194,13.546-62.666,29.086-92.686c6.89-13.31,15.74-26.76,29.475-32.761c13.361-5.837,31.287-2.112,38.499,10.56
				c7.211,12.672-1.742,32.254-16.322,32.392c-4.866,0.046-9.545-1.833-14.387-2.318c-19.017-1.906-34.32,21.154-28.017,39.197
				s28.552,27.302,47.071,22.576c18.519-4.727,32.675-20.697,39.379-38.595c9.386-25.055,5.487-52.752,8.451-78.841
				c3.165-27.863,12.709-53.758,26.537-78.017C150.05,7.223,159.077-3.706,168.936-14H-19.722z"/>
			<g style="opacity:0.2;">
				<path style="fill:#0383FC;" d="M8.359,88.172c3.893-4.412,5.254-11.559,1.606-16.175c-3.376-4.272-9.644-4.975-15.01-4.054
					c-9.305,1.597-17.666,6.989-24.12,13.88c-6.473,6.911-14.652,17.969-16.718,27.425c-1.614,7.384,1.53,6.392,7.188,3.297
					c7.312-3.999,13.514-9.677,21.322-12.806C-8.69,96.259,1.783,95.626,8.359,88.172z"/>
				<path style="fill:#0383FC;" d="M25.388,48.742c-1.459,3.764-1.608,8.779,1.708,11.082c3.123,2.168,7.542,0.717,11.074,2.122
					c4.205,1.672,6.144,6.934,10.372,8.545c4.377,1.668,9.268-1.39,11.897-5.267c3.929-5.792,4.56-13.668,1.605-20.012
					C53.672,27.238,31.803,32.194,25.388,48.742z"/>
				<path style="fill:#0383FC;" d="M17.006,25.934c-2.126-5.062-6.572-8.312-13.063-5.589c-8.08,3.39-17.211,15.132-18.285,23.889
					c-0.305,2.486,0.036,5.564,2.308,6.616c2.228,1.031,4.693-0.579,7.049-1.269c3.292-0.963,6.829-0.074,10.243-0.399
					c4.435-0.423,8.608-3.036,10.926-6.841C18.94,37.815,19.124,30.976,17.006,25.934z"/>
				<path style="fill:#0383FC;" d="M17.047,93.201c-0.65,1.466-1.283,3.126-0.724,4.63c0.736,1.98,3.317,2.728,5.344,2.135
					c2.027-0.592,3.608-2.146,5.079-3.662s3.003-3.102,4.998-3.792c2.849-0.986,6.065,0.049,8.966-0.771
					c3.66-1.035,6.012-5.099,5.591-8.88c-0.789-7.09-10.063-11.834-16.565-9.234C23.186,76.246,19.628,87.382,17.047,93.201z"/>
				<path style="fill:#0383FC;" d="M33.481,16.276c4.539,2.655,9.786,3.778,14.932,4.863c5.11,1.077,10.557,2.133,15.438,0.277
					c5.784-2.199,9.617-8.992,7.896-14.935c-0.888-3.066-3.016-5.636-4.057-8.654c-1.174-3.406-0.906-7.215-2.323-10.527
					c-2.303-5.383-8.383-8.051-14.107-9.281C25.748-27.468,8.268,1.528,33.481,16.276z"/>
				<path style="fill:#0383FC;" d="M1.301-1.196c-2.976,3.601-7.681,5.18-12.124,6.625c-4.442,1.445-9.14,3.103-12.011,6.789
					c-1.253,1.608-2.209,3.636-4.08,4.445c-2.411,1.042-5.343-0.608-6.474-2.978s-0.857-5.171-0.197-7.713
					c2.42-9.328,9.39-16.685,16.104-23.599C-5.507-29.957,11.149-13.113,1.301-1.196z"/>
				<path style="fill:#0383FC;" d="M77.057,43.529c-0.848,5.47,2.115,10.939,1.573,16.448c-0.228,2.315-1.011,4.895,0.332,6.795
					c1.727,2.443,5.734,1.709,7.878-0.377c2.144-2.086,3.199-5.039,5.036-7.4c5.123-6.585,15.765-8.026,18.992-15.72
					c2.225-5.305-0.617-12.007-5.763-14.579C96.645,24.466,78.502,34.21,77.057,43.529z"/>
			</g>
			<g style="opacity:0.2;">
				<path style="fill:#0383FC;" d="M776.166,244.153c-3.153-4.969-9.636-8.268-15.087-6.05c-5.043,2.052-7.465,7.876-8.076,13.286
					c-1.059,9.381,1.789,18.913,6.608,27.033c4.833,8.142,13.174,19.079,21.679,23.699c6.642,3.608,6.565,0.312,5.17-5.984
					c-1.803-8.137-5.527-15.675-6.357-24.047C779.181,262.78,781.492,252.546,776.166,244.153z"/>
				<path style="fill:#0383FC;" d="M743.044,216.809c3.208,2.451,7.983,3.991,11.119,1.448c2.952-2.395,2.79-7.043,5.124-10.044
					c2.777-3.572,8.371-3.968,11.097-7.579c2.822-3.738,1.247-9.288-1.742-12.893c-4.467-5.387-11.856-8.189-18.772-7.119
					C730.274,183.653,728.94,206.036,743.044,216.809z"/>
				<path style="fill:#0383FC;" d="M718.804,218.503c-5.454,0.631-9.814,3.995-9.008,10.988c1.004,8.705,9.736,20.747,17.846,24.218
					c2.302,0.985,5.354,1.517,6.997-0.373c1.611-1.852,0.751-4.668,0.746-7.123c-0.007-3.43,1.832-6.579,2.471-9.949
					c0.83-4.377-0.516-9.113-3.525-12.399C730.753,219.957,724.236,217.874,718.804,218.503z"/>
				<path style="fill:#0383FC;" d="M712.703,135.543c-0.829,1.285-1.693,2.759-1.646,4.303c0.061,2.032,1.769,3.225,3.394,3.03
					c1.626-0.195,3.157-1.393,4.599-2.574c1.441-1.182,2.944-2.419,4.571-2.714c2.322-0.42,4.425,1.164,6.745,0.912
					c2.927-0.318,5.628-3.779,6.231-7.479c1.132-6.938-4.507-13.192-9.89-11.898C721.282,120.427,715.994,130.443,712.703,135.543z"
					/>
				<path style="fill:#0383FC;" d="M714.119,199.989c3.815-3.619,6.356-8.346,8.832-12.985c2.459-4.607,4.99-9.544,4.568-14.749
					c-0.5-6.168-5.955-11.742-12.143-11.746c-3.192-0.002-6.254,1.326-9.441,1.484c-3.598,0.179-7.182-1.14-10.758-0.703
					c-5.812,0.711-10.068,5.807-12.845,10.961C669.953,195.224,692.929,220.092,714.119,199.989z"/>
				<path style="fill:#0383FC;" d="M688.372,226.025c2.629,3.862,2.834,8.82,2.984,13.49c0.15,4.669,0.433,9.642,3.172,13.427
					c1.195,1.651,2.876,3.135,3.132,5.157c0.329,2.605-2.073,4.961-4.664,5.387c-2.592,0.426-5.205-0.618-7.463-1.96
					c-8.284-4.924-13.407-13.668-18.176-22.043C658.852,224.548,679.671,213.245,688.372,226.025z"/>
				<path style="fill:#0383FC;" d="M752.437,165.735c5.017,2.339,11.095,1.018,16.234,3.074c2.16,0.864,4.419,2.335,6.618,1.575
					c2.827-0.978,3.24-5.031,1.833-7.671c-1.406-2.64-3.948-4.477-5.704-6.898c-4.897-6.755-3.315-17.377-9.805-22.621
					c-4.475-3.616-11.703-2.754-15.608,1.471C739.588,141.61,743.89,161.75,752.437,165.735z"/>
			</g>
			<g style="opacity:0.2;">
				<path style="fill:#0383FC;" d="M279.638,511.588c5.162,0.148,10.747-2.946,11.813-7.999c0.986-4.676-2.06-9.298-5.694-12.401
					c-6.302-5.38-14.633-7.992-22.906-8.476c-8.296-0.486-20.348,0.207-27.887,4.122c-5.887,3.058-3.452,4.621,1.812,6.7
					c6.803,2.687,14.115,3.682,20.611,7.192C264.611,504.629,270.918,511.337,279.638,511.588z"/>
				<path style="fill:#0383FC;" d="M258.228,435.967c-3.358,1.129-6.825,3.845-6.516,7.375c0.291,3.324,3.751,5.49,4.787,8.661
					c1.233,3.775-1.227,8.037,0.06,11.794c1.333,3.889,6.142,5.471,10.233,5.068c6.113-0.602,11.78-4.599,14.4-10.154
					C288.614,442.97,272.992,431.003,258.228,435.967z"/>
				<path style="fill:#0383FC;" d="M326.475,482.474c2.221-4.277,1.916-9.1-3.565-11.95c-6.824-3.547-19.871-3.113-26.381,1.08
					c-1.848,1.19-3.733,3.148-3.167,5.272c0.556,2.081,3.026,2.84,4.814,4.042c2.498,1.68,3.884,4.565,6.021,6.685
					c2.776,2.754,6.881,4.102,10.749,3.529C319.547,490.449,324.263,486.733,326.475,482.474z"/>
				<path style="fill:#0383FC;" d="M296.893,423.224c2.494-2.254,3.471-5.481,0.583-8.679c-3.595-3.982-12.229-6.879-17.505-5.726
					c-1.498,0.327-3.208,1.147-3.355,2.673c-0.144,1.496,1.285,2.594,2.161,3.816c1.223,1.707,1.426,3.93,2.305,5.837
					c1.143,2.477,3.497,4.359,6.165,4.927C290.42,426.748,294.409,425.469,296.893,423.224z"/>
				<path style="fill:#0383FC;" d="M397.311,478.834c-1.157-0.68-2.481-1.383-3.833-1.287c-1.78,0.127-2.763,1.669-2.533,3.087
					c0.23,1.419,1.336,2.718,2.425,3.938c1.089,1.221,2.229,2.494,2.546,3.909c0.453,2.02-0.859,3.923-0.554,5.948
					c0.385,2.555,3.52,4.797,6.786,5.191c6.126,0.74,11.404-4.433,10.073-9.107C410.879,485.806,401.904,481.534,397.311,478.834z"
					/>
				<path style="fill:#0383FC;" d="M342.241,488.163c0.758,4.553,2.947,8.723,5.104,12.803c2.143,4.052,4.489,8.318,8.482,10.569
					c4.731,2.667,11.465,1.438,14.508-3.06c1.569-2.32,2.108-5.199,3.559-7.595c1.638-2.704,4.358-4.663,5.796-7.478
					c2.338-4.576,0.723-10.175-1.66-14.727C367.405,458.385,338.032,462.876,342.241,488.163z"/>
				<path style="fill:#0383FC;" d="M335.957,456.647c-4.1,0.015-7.807-2.273-11.276-4.458c-3.469-2.185-7.225-4.422-11.323-4.29
					c-1.788,0.058-3.693,0.551-5.289-0.256c-2.056-1.041-2.59-3.945-1.626-6.039c0.964-2.094,3.007-3.482,5.092-4.464
					c7.651-3.606,16.527-3.035,24.96-2.388C351.534,435.905,349.525,456.598,335.957,456.647z"/>
				<path style="fill:#0383FC;" d="M231.057,400.889c-4.166,2.499-6.191,7.569-10.211,10.296c-1.69,1.146-3.87,2.066-4.397,4.039
					c-0.678,2.536,2.067,4.828,4.678,5.102c2.611,0.274,5.195-0.672,7.819-0.759c7.318-0.242,14.266,6.127,21.268,3.984
					c4.828-1.478,7.753-7.158,6.598-12.073C254.914,403.398,238.154,396.632,231.057,400.889z"/>
			</g>
			<path style="opacity:0.3;fill:#004DCE;" d="M179.632,79.501c-4.012,0.518-7.815,0.706-11.05-1.975
				c-6.376-5.285-0.613-14.544,3.227-19.281c9.362-11.549,25.357-18.524,38.571-24.569c20.339-9.304,41.988-15.218,62.627-23.76
				c11.517-4.766,23.636-9.996,30.921-20.11c-12.542-8.375-22.892-4.714-36.314-3.805C253.353-13.033,238.679-14,224.381-14
				c-29.182,0-58.365,0-87.547,0c-23.096,0-46.191,0-69.287,0c-4.401,0-23.879-3.03-27.415,0c-8.382,7.181-14.318,16.4-16.1,28.056
				c-1.285,8.402,0.734,17.718,7,23.461c6.445,5.907,16.019,6.995,24.703,5.987c8.684-1.008,17.111-3.792,25.826-4.488
				c8.714-0.696,18.306,1.132,24.079,7.697c9.597,10.913-1.181,22.469-4.893,33.085c-4.01,11.468-4.337,23.302-1.426,33.878
				c5.024,18.248,19.689,32.75,41.713,35.164c17.612,1.93,35.536-4.98,48.934-16.574c8.48-7.339,13.518-19.324,14.019-30.617
				c0.295-6.659-1.748-13.565-6.335-18.401C191.958,77.246,185.566,78.734,179.632,79.501z"/>
			<path style="fill:#0274F4;" d="M189.632,79.501c-4.012,0.518-7.815,0.706-11.05-1.975c-6.376-5.285-0.613-14.544,3.227-19.281
				c9.362-11.549,25.357-18.524,38.571-24.569c20.339-9.304,41.988-15.218,62.627-23.76c11.517-4.766,23.636-9.996,30.921-20.11
				c-12.542-8.375-22.892-4.714-36.314-3.805C263.353-13.033,248.679-14,234.381-14c-29.182,0-58.365,0-87.547,0
				c-23.096,0-46.191,0-69.287,0c-4.401,0-23.879-3.03-27.415,0c-8.382,7.181-14.318,16.4-16.1,28.056
				c-1.285,8.402,0.734,17.718,7,23.461c6.445,5.907,16.019,6.995,24.703,5.987c8.685-1.008,17.111-3.792,25.826-4.488
				c8.714-0.696,18.306,1.132,24.079,7.697c9.597,10.913-1.181,22.469-4.893,33.085c-4.01,11.468-4.337,23.302-1.426,33.878
				c5.024,18.248,19.689,32.75,41.713,35.164c17.612,1.93,35.536-4.98,48.934-16.574c8.48-7.339,13.518-19.324,14.019-30.617
				c0.295-6.659-1.748-13.565-6.335-18.401C201.958,77.246,195.566,78.734,189.632,79.501z"/>
			<path style="opacity:0.3;fill:#004DCE;" d="M218.554-14c-5.051,7.823-9.085,16.465-11.732,22.637
				c-6.851,15.972-9.016,34.762-1.905,50.62c7.112,15.857,25.04,27.349,41.997,23.541c21.532-4.836,28.064-37.257,50.398-35.115
				c19.602,1.88,11.496,34.574,31.13,32.514c6.592-0.692,11.154-6.69,14.885-12.169c12.465-18.303,21.889-30.772,40.201-43.111
				c17.287-11.65,36.217-20.975,56.06-27.39c4.813-1.567,9.836-3.055,13.671-6.358c1.609-1.385,2.939-3.199,3.782-5.169H218.554z"/>
			<path style="fill:#0383FC;" d="M228.554-14c-5.051,7.823-9.085,16.465-11.732,22.637c-6.851,15.972-9.016,34.762-1.905,50.62
				c7.112,15.857,25.04,27.349,41.997,23.541c21.532-4.836,28.064-37.257,50.398-35.115c19.602,1.88,11.496,34.574,31.13,32.514
				c6.592-0.692,11.154-6.69,14.885-12.169c12.465-18.303,21.889-30.772,40.201-43.111c17.287-11.65,36.217-20.975,56.06-27.39
				c4.813-1.567,9.836-3.055,13.671-6.358c1.609-1.385,2.939-3.199,3.782-5.169H228.554z"/>
			<g style="opacity:0.2;">
				<path style="fill:#0383FC;" d="M364.477-18.243c-3.556,1.221-6.569,4.76-6.001,8.477c0.526,3.439,3.785,5.809,7.056,6.993
					c5.673,2.052,12.019,1.698,17.781-0.09c5.778-1.794,13.814-5.352,17.948-9.951c3.229-3.592,1.169-4.033-2.951-4.102
					c-5.324-0.088-10.562,1.106-15.888,0.378C376.501-17.349,370.484-20.305,364.477-18.243z"/>
				<path style="fill:#0383FC;" d="M342.564-1.722c2-1.63,3.666-4.368,2.552-6.695c-1.05-2.19-3.962-2.781-5.481-4.676
					c-1.807-2.257-1.222-5.792-3.061-8.022c-1.904-2.309-5.587-2.155-8.271-0.833c-4.012,1.976-6.85,6.151-7.213,10.608
					C320.063,1.288,333.774,5.442,342.564-1.722z"/>
				<path style="fill:#0383FC;" d="M340.016,13.593c-0.418,3.483,1.025,6.693,5.49,7.231c5.559,0.67,14.339-2.968,17.702-7.492
					c0.954-1.284,1.738-3.102,0.808-4.404c-0.912-1.276-2.789-1.161-4.316-1.522c-2.133-0.505-3.816-2.116-5.815-3.014
					c-2.597-1.166-5.74-1.033-8.229,0.348C342.694,6.384,340.432,10.124,340.016,13.593z"/>
				<path style="fill:#0383FC;" d="M291.46,18.86c0.124-3.506-1.583-6.583-6.078-6.744c-5.595-0.201-14.04,4.161-17.01,8.952
					c-0.843,1.36-1.471,3.237-0.435,4.456c1.016,1.195,2.877,0.922,4.428,1.154c2.167,0.324,3.98,1.788,6.048,2.515
					c2.686,0.944,5.806,0.548,8.171-1.038C289.396,26.269,291.336,22.352,291.46,18.86z"/>
				<path style="fill:#0383FC;" d="M293.844-0.087c1.111-0.484,2.328-1.078,2.975-2.116c0.852-1.368,0.248-2.904-0.91-3.489
					c-1.158-0.585-2.694-0.467-4.163-0.32c-1.47,0.147-3.004,0.304-4.207-0.216c-1.716-0.742-2.408-2.71-4.049-3.562
					c-2.07-1.075-5.371,0.024-7.394,2.2c-3.792,4.081-2.817,10.682,1.303,12.19C281.55,6.121,289.434,1.834,293.844-0.087z"/>
				<path style="fill:#0383FC;" d="M327.814,13.754c-1.682-2.909-4.242-5.19-6.757-7.418c-2.498-2.212-5.19-4.519-8.487-5.03
					c-3.907-0.606-8.182,1.956-9.103,5.801c-0.475,1.983-0.105,4.083-0.48,6.088c-0.423,2.262-1.776,4.294-2.035,6.581
					c-0.421,3.717,2.113,7.119,4.903,9.611C318.292,40.492,337.159,29.909,327.814,13.754z"/>
				<path style="fill:#0383FC;" d="M341.91,40.516c-1.215-1.295-1.631-3.213-2.007-5.022c-0.376-1.809-0.821-3.726-2.071-4.983
					c-0.545-0.548-1.254-0.992-1.486-1.76c-0.298-0.99,0.406-2.102,1.312-2.476c0.906-0.374,1.921-0.177,2.828,0.166
					c3.329,1.256,5.78,4.256,8.079,7.139C352.664,38.723,345.931,44.803,341.91,40.516z"/>
				<path style="fill:#0383FC;" d="M247.668-19.024c2.79-1.06,5.902-0.451,8.826,0.15c2.924,0.601,6.056,1.163,8.815,0.023
					c1.203-0.497,2.376-1.322,3.67-1.18c1.668,0.182,2.775,2.025,2.655,3.699c-0.12,1.674-1.157,3.143-2.327,4.346
					c-4.29,4.417-10.486,6.301-16.398,8.02C242.365-0.9,238.434-15.516,247.668-19.024z"/>
				<path style="fill:#0383FC;" d="M312.221-15.147c2.199-2.77,2.281-6.744,4.322-9.632c0.858-1.214,2.108-2.399,1.962-3.879
					c-0.188-1.902-2.645-2.761-4.494-2.279c-1.85,0.482-3.368,1.789-5.134,2.52c-4.925,2.039-11.291-0.522-15.514,2.732
					c-2.912,2.244-3.45,6.863-1.405,9.918C295.32-10.747,308.474-10.428,312.221-15.147z"/>
			</g>
		</g>
		<g style="clip-path:url(#SVGID_00000140733531559894229800000000272548302858084748_);">
			
				<path style="fill:none;stroke:#2B9CF9;stroke-width:2;stroke-linecap:round;stroke-linejoin:round;stroke-miterlimit:10;stroke-dasharray:5,7,5,7;" d="
				M529.074-68.733c20.767,40.433,16.592,86.022-2.946,125.85c-6.939,14.145-14.587,28.108-18.708,43.314
				c-4.121,15.206-4.382,32.155,3.095,46.021c17.176,31.853,45.858,16.893,71.357,8.936c18.55-5.788,38.712-6.31,57.536-1.489
				c17.7,4.533,34.075,13.624,52.01,17.114c31.419,6.114,64.896-6.372,87.635-28.9c22.738-22.528,35.317-54.019,38.63-85.855
				c2.824-27.138-0.973-55.582-14.788-79.111c-14.496-24.688-39.328-42.459-66.602-51.164c-27.274-8.705-56.82-8.8-84.925-3.347
				c-23.757,4.609-41.536,10.18-53.727,33.422c-8.331,15.882-11.279,33.953-14.001,51.679c-2.722,17.726-5.435,35.799-13.37,51.883
				c-4.298,8.712-10.05,16.661-14.118,25.483c-4.067,8.821-6.37,19.042-3.287,28.253c10.165,30.366,39.015,3.641,54.321-4.702
				c16.556-9.024,36.786-11.049,54.803-5.485c13.07,4.036,25.132,11.884,38.768,12.98c12.572,1.011,25.093-4.01,35.073-11.723
				c9.979-7.713,17.699-17.958,24.561-28.541c7.861-12.124,14.852-25.094,17.862-39.227c3.009-14.132,1.673-29.648-6.148-41.797
				c-10.239-15.905-29.881-23.574-48.761-24.721c-34.913-2.122-70.332,16.127-88.869,45.789
				c-7.086,11.338-11.477,26.92-3.244,37.455c8.876,11.356,27.142,9.559,39.373,1.934c23.183-14.455,34.153-34.007,64.391-35.543
				c4.963-0.252,10.096,0.02,14.609,2.101c4.512,2.081,8.302,6.285,8.717,11.237c0.668,7.956-7.24,14.162-14.995,16.062
				c-7.755,1.9-16.031,1.164-23.643,3.572C709.396,56,701.265,65.28,699.39,75.907"/>
			<g>
				
					<path style="fill:none;stroke:#2B9CF9;stroke-width:2;stroke-linecap:round;stroke-linejoin:round;stroke-miterlimit:10;stroke-dasharray:5,7,5,7;" d="
					M-44.905,229.094c-2.135-22.457,10.988-45.58,31.363-55.261c20.374-9.682,46.59-5.252,62.653,10.586
					c17.83,17.582,24.588,47.59,48.175,55.997c32.835,11.703,68.482-29.448,100.465-15.586c22.33,9.678,26.419,40.552,18.951,63.714
					c-10.67,33.096-25.754,74.664-58.889,91.518c-18.717,9.52-32.126-0.092-51.148,2.656c-22.918,3.311-45.211,17.094-59.289,35.268
					c-13.421,17.326-20.637,38.973-34.996,55.53c-14.359,16.557-41.083,26.457-57.963,12.48
					c-12.051-9.978-13.898-27.494-14.353-43.133c-1.666-57.223,4.113-117.352,35.372-165.312
					c9.405-14.429,23.615-28.645,40.802-27.517c21.003,1.378,34.658,24.719,55.322,28.723c14.216,2.754,28.243-4.223,42.255-7.874
					c14.012-3.652,32.199-2.128,38.485,10.917c5.649,11.721-2.356,26.156-13.476,32.912c-11.12,6.756-24.526,8.207-37.176,11.252
					c-35.512,8.549-67.407,31.253-87.112,62.008c-8.036,12.542-19.331,28.667-33.498,24.065
					c-12.169-3.953-14.314-20.445-11.528-32.933c10.159-45.546,60.261-78.073,105.999-68.815"/>
			</g>
		</g>
	</g>
</g>
</svg>
